<svg xmlns="http://www.w3.org/2000/svg" viewBox="0 0 600 900" width="600" height="900">
<rect width="600" height="900" fill="#7b2a00"/>
<svg x="0" y="96" width="600" height="572" viewBox="460 0 680 900" preserveAspectRatio="xMidYMid slice"><defs><linearGradient id="dawn" x1="0" y1="0" x2="0" y2="1"><stop offset="0" stop-color="#ffd6a5"/><stop offset="1" stop-color="#fff1e0"/></linearGradient></defs><rect x="0" y="0" width="1600" height="900" fill="url(#dawn)" /><circle cx="1260" cy="170" r="80" fill="#ffe8a3" /><rect x="500" y="210" width="600" height="50" fill="#c9a77c" /><rect x="470" y="260" width="660" height="26" fill="#c9a77c" /><rect x="500" y="286" width="38" height="250" fill="#c9a77c" /><rect x="612" y="286" width="38" height="250" fill="#c9a77c" /><rect x="724" y="286" width="38" height="250" fill="#c9a77c" /><rect x="836" y="286" width="38" height="250" fill="#c9a77c" /><rect x="948" y="286" width="38" height="250" fill="#c9a77c" /><rect x="1060" y="286" width="38" height="250" fill="#c9a77c" /><rect x="470" y="536" width="660" height="22" fill="#c9a77c" /><rect x="700" y="170" width="200" height="40" fill="#c9a77c" /><polygon points="0,900 640,560 960,560 1600,900" fill="#4a4e5c" /><polygon points="780,560 820,560 860,900 740,900" fill="#fff" opacity=".75"/><rect x="600" y="534" width="60" height="26" fill="#ffffff" /><rect x="488.3" y="586.3" width="70" height="30.3" fill="#2d6cdf" /><rect x="376.7" y="638.7" width="80" height="34.7" fill="#ffffff" /><rect x="265" y="691" width="90" height="39" fill="#2d6cdf" /><rect x="153.3" y="743.3" width="100" height="43.3" fill="#ffffff" /><rect x="41.7" y="795.7" width="110" height="47.7" fill="#2d6cdf" /><rect x="940" y="534" width="60" height="26" fill="#ffffff" /><rect x="1041.7" y="586.3" width="70" height="30.3" fill="#2d6cdf" /><rect x="1143.3" y="638.7" width="80" height="34.7" fill="#ffffff" /><rect x="1245" y="691" width="90" height="39" fill="#2d6cdf" /><rect x="1346.7" y="743.3" width="100" height="43.3" fill="#ffffff" /><rect x="1448.3" y="795.7" width="110" height="47.7" fill="#2d6cdf" /><g transform="translate(640 760) scale(1.4 1.4)" stroke-linecap="round" stroke-linejoin="round"><path d="M0 -40L-30 30L-10 90" fill="none" stroke="#3a2a1e" stroke-width="18"/><path d="M0 -40L30 20L70 50" fill="none" stroke="#3a2a1e" stroke-width="18"/><path d="M0 -120L0 -40" fill="none" stroke="#e03131" stroke-width="44"/><path d="M0 -110L-40 -70L-20 -40" fill="none" stroke="#3a2a1e" stroke-width="14"/><path d="M0 -110L40 -90L60 -120" fill="none" stroke="#3a2a1e" stroke-width="14"/><circle cx="0" cy="-150" r="22" fill="#3a2a1e" /></g><g transform="translate(880 720) scale(-1.2 1.2)" stroke-linecap="round" stroke-linejoin="round"><path d="M0 -40L-30 30L-10 90" fill="none" stroke="#3a2a1e" stroke-width="18"/><path d="M0 -40L30 20L70 50" fill="none" stroke="#3a2a1e" stroke-width="18"/><path d="M0 -120L0 -40" fill="none" stroke="#2f9e44" stroke-width="44"/><path d="M0 -110L-40 -70L-20 -40" fill="none" stroke="#3a2a1e" stroke-width="14"/><path d="M0 -110L40 -90L60 -120" fill="none" stroke="#3a2a1e" stroke-width="14"/><circle cx="0" cy="-150" r="22" fill="#3a2a1e" /></g><g transform="translate(1040 800) scale(1.6 1.6)" stroke-linecap="round" stroke-linejoin="round"><path d="M0 -40L-30 30L-10 90" fill="none" stroke="#3a2a1e" stroke-width="18"/><path d="M0 -40L30 20L70 50" fill="none" stroke="#3a2a1e" stroke-width="18"/><path d="M0 -120L0 -40" fill="none" stroke="#f59f00" stroke-width="44"/><path d="M0 -110L-40 -70L-20 -40" fill="none" stroke="#3a2a1e" stroke-width="14"/><path d="M0 -110L40 -90L60 -120" fill="none" stroke="#3a2a1e" stroke-width="14"/><circle cx="0" cy="-150" r="22" fill="#3a2a1e" /></g><g transform="translate(500 680) scale(-0.9 0.9)" stroke-linecap="round" stroke-linejoin="round"><path d="M0 -40L-30 30L-10 90" fill="none" stroke="#3a2a1e" stroke-width="18"/><path d="M0 -40L30 20L70 50" fill="none" stroke="#3a2a1e" stroke-width="18"/><path d="M0 -120L0 -40" fill="none" stroke="#7048e8" stroke-width="44"/><path d="M0 -110L-40 -70L-20 -40" fill="none" stroke="#3a2a1e" stroke-width="14"/><path d="M0 -110L40 -90L60 -120" fill="none" stroke="#3a2a1e" stroke-width="14"/><circle cx="0" cy="-150" r="22" fill="#3a2a1e" /></g><g transform="translate(1180 690) scale(0.9 0.9)" stroke-linecap="round" stroke-linejoin="round"><path d="M0 -40L-30 30L-10 90" fill="none" stroke="#3a2a1e" stroke-width="18"/><path d="M0 -40L30 20L70 50" fill="none" stroke="#3a2a1e" stroke-width="18"/><path d="M0 -120L0 -40" fill="none" stroke="#0c7fd6" stroke-width="44"/><path d="M0 -110L-40 -70L-20 -40" fill="none" stroke="#3a2a1e" stroke-width="14"/><path d="M0 -110L40 -90L60 -120" fill="none" stroke="#3a2a1e" stroke-width="14"/><circle cx="0" cy="-150" r="22" fill="#3a2a1e" /></g></svg>
<rect width="600" height="96" fill="#ffffff"/>
<text x="30" y="66" font-family="'Arial Black','Helvetica Neue',Arial,sans-serif" font-weight="900" font-size="50" fill="#7b2a00" letter-spacing="-1">ARISE<tspan fill="#e8590c"> NEWS</tspan></text>
<text x="570" y="44" font-family="Arial,sans-serif" font-weight="700" font-size="16" fill="#7b2a00" text-anchor="end">ISSUE 2</text>
<text x="570" y="68" font-family="Arial,sans-serif" font-weight="700" font-size="16" fill="#e8590c" text-anchor="end">SPORTS</text>
<rect y="668" width="600" height="232" fill="#7b2a00"/>
<rect x="30" y="686" width="120" height="8" fill="#e8590c"/>
<text x="30" y="732" font-family="'Arial Black','Helvetica Neue',Arial,sans-serif" font-weight="900" font-size="50" fill="#ffffff">Fast Feet in</text>
<text x="30" y="788" font-family="'Arial Black','Helvetica Neue',Arial,sans-serif" font-weight="900" font-size="50" fill="#ffffff">Berlin: A New</text>
<text x="30" y="844" font-family="'Arial Black','Helvetica Neue',Arial,sans-serif" font-weight="900" font-size="50" fill="#ffffff">Course Record</text>
<text x="570" y="690" font-family="Arial,sans-serif" font-weight="800" font-size="20" fill="#ffffff" text-anchor="end">5 PTS</text>
</svg>