<svg xmlns="http://www.w3.org/2000/svg" viewBox="0 0 600 900" width="600" height="900">
<rect width="600" height="900" fill="#06504d"/>
<svg x="0" y="96" width="600" height="540" viewBox="460 0 680 900" preserveAspectRatio="xMidYMid slice"><defs><linearGradient id="deep" x1="0" y1="0" x2="0" y2="1"><stop offset="0" stop-color="#1b7f86"/><stop offset="1" stop-color="#062f3d"/></linearGradient></defs><rect x="0" y="0" width="1600" height="900" fill="url(#deep)" /><circle cx="1.2" cy="168.8" r="12.6" fill="none" stroke="#bff3f0" stroke-width="2.5" opacity="0.3"/><circle cx="386.3" cy="875.6" r="11.9" fill="none" stroke="#bff3f0" stroke-width="2.5" opacity="0.6"/><circle cx="405.8" cy="817.9" r="4.6" fill="none" stroke="#bff3f0" stroke-width="2.5" opacity="0.6"/><circle cx="733.3" cy="225.2" r="4.4" fill="none" stroke="#bff3f0" stroke-width="2.5" opacity="0.4"/><circle cx="497.3" cy="838.5" r="6.2" fill="none" stroke="#bff3f0" stroke-width="2.5" opacity="0.6"/><circle cx="753.2" cy="317.7" r="9.5" fill="none" stroke="#bff3f0" stroke-width="2.5" opacity="0.5"/><circle cx="261.2" cy="809.2" r="10.6" fill="none" stroke="#bff3f0" stroke-width="2.5" opacity="0.5"/><circle cx="1345.5" cy="176" r="4.6" fill="none" stroke="#bff3f0" stroke-width="2.5" opacity="0.2"/><circle cx="75.8" cy="471.8" r="6.5" fill="none" stroke="#bff3f0" stroke-width="2.5" opacity="0.3"/><circle cx="1367.5" cy="62.5" r="10.4" fill="none" stroke="#bff3f0" stroke-width="2.5" opacity="0.4"/><circle cx="523.6" cy="324.4" r="7.6" fill="none" stroke="#bff3f0" stroke-width="2.5" opacity="0.7"/><circle cx="638.8" cy="544.1" r="10.2" fill="none" stroke="#bff3f0" stroke-width="2.5" opacity="0.4"/><circle cx="213.3" cy="477" r="3.6" fill="none" stroke="#bff3f0" stroke-width="2.5" opacity="0.3"/><circle cx="385.7" cy="825.3" r="12.6" fill="none" stroke="#bff3f0" stroke-width="2.5" opacity="0.4"/><circle cx="1409.4" cy="16.1" r="4.1" fill="none" stroke="#bff3f0" stroke-width="2.5" opacity="0.3"/><circle cx="1145.6" cy="174.2" r="7.3" fill="none" stroke="#bff3f0" stroke-width="2.5" opacity="0.4"/><circle cx="941.8" cy="464.2" r="12.6" fill="none" stroke="#bff3f0" stroke-width="2.5" opacity="0.7"/><circle cx="1561.1" cy="546" r="3.9" fill="none" stroke="#bff3f0" stroke-width="2.5" opacity="0.6"/><circle cx="99.4" cy="829.7" r="11.2" fill="none" stroke="#bff3f0" stroke-width="2.5" opacity="0.3"/><circle cx="979.6" cy="279.1" r="5.2" fill="none" stroke="#bff3f0" stroke-width="2.5" opacity="0.6"/><circle cx="1171.5" cy="574.2" r="9.9" fill="none" stroke="#bff3f0" stroke-width="2.5" opacity="0.3"/><circle cx="1181.4" cy="83.7" r="12.7" fill="none" stroke="#bff3f0" stroke-width="2.5" opacity="0.4"/><circle cx="551.4" cy="795.5" r="7.6" fill="none" stroke="#bff3f0" stroke-width="2.5" opacity="0.5"/><circle cx="1410.3" cy="285.4" r="10.2" fill="none" stroke="#bff3f0" stroke-width="2.5" opacity="0.6"/><circle cx="670.5" cy="624.2" r="10" fill="none" stroke="#bff3f0" stroke-width="2.5" opacity="0.3"/><circle cx="9.8" cy="504.8" r="4.3" fill="none" stroke="#bff3f0" stroke-width="2.5" opacity="0.3"/><circle cx="59.1" cy="10.2" r="6.2" fill="none" stroke="#bff3f0" stroke-width="2.5" opacity="0.4"/><circle cx="1312.6" cy="629.3" r="11.7" fill="none" stroke="#bff3f0" stroke-width="2.5" opacity="0.6"/><circle cx="154" cy="754.1" r="6" fill="none" stroke="#bff3f0" stroke-width="2.5" opacity="0.3"/><circle cx="252.2" cy="293.9" r="7.1" fill="none" stroke="#bff3f0" stroke-width="2.5" opacity="0.4"/><path d="M120 900C70 720 190 600 110 470C160 600 110 740 160 900Z" fill="#2c8a5a" opacity=".85"/><path d="M230 900C180 720 300 600 220 470C270 600 220 740 270 900Z" fill="#2c8a5a" opacity=".85"/><path d="M1380 900C1330 720 1450 600 1370 470C1420 600 1370 740 1420 900Z" fill="#2c8a5a" opacity=".85"/><path d="M1500 900C1450 720 1570 600 1490 470C1540 600 1490 740 1540 900Z" fill="#2c8a5a" opacity=".85"/><path d="M0 820Q300 760 620 800T1200 790T1600 810V900H0Z" fill="#0b3b44" /><ellipse cx="560" cy="815" rx="190" ry="40" fill="#165561"/><ellipse cx="1120" cy="800" rx="150" ry="34" fill="#165561"/><g transform="translate(800 420) scale(1.2)"><path d="M-14 -30L-110 -150L-230 -150" fill="none" stroke="#f1c7a6" stroke-width="12" stroke-linecap="round" stroke-linejoin="round"/><circle cx="-110" cy="-150" r="9" fill="#f1c7a6" /><path d="M-164 -150l-14 -16" fill="none" stroke="#f1c7a6" stroke-width="4" stroke-linecap="round"/><path d="M-178.4 -150l-14 -16" fill="none" stroke="#f1c7a6" stroke-width="4" stroke-linecap="round"/><path d="M-192.8 -150l-14 -16" fill="none" stroke="#f1c7a6" stroke-width="4" stroke-linecap="round"/><path d="M-207.2 -150l-14 -16" fill="none" stroke="#f1c7a6" stroke-width="4" stroke-linecap="round"/><path d="M-221.6 -150l-14 -16" fill="none" stroke="#f1c7a6" stroke-width="4" stroke-linecap="round"/><path d="M-14 -10L-110 -110L-260 -30" fill="none" stroke="#f1c7a6" stroke-width="12" stroke-linecap="round" stroke-linejoin="round"/><circle cx="-110" cy="-110" r="9" fill="#f1c7a6" /><path d="M-177.5 -74l-14 -16" fill="none" stroke="#f1c7a6" stroke-width="4" stroke-linecap="round"/><path d="M-195.5 -64.4l-14 -16" fill="none" stroke="#f1c7a6" stroke-width="4" stroke-linecap="round"/><path d="M-213.5 -54.8l-14 -16" fill="none" stroke="#f1c7a6" stroke-width="4" stroke-linecap="round"/><path d="M-231.5 -45.2l-14 -16" fill="none" stroke="#f1c7a6" stroke-width="4" stroke-linecap="round"/><path d="M-249.5 -35.6l-14 -16" fill="none" stroke="#f1c7a6" stroke-width="4" stroke-linecap="round"/><path d="M-14 10L-110 -70L-250 110" fill="none" stroke="#f1c7a6" stroke-width="12" stroke-linecap="round" stroke-linejoin="round"/><circle cx="-110" cy="-70" r="9" fill="#f1c7a6" /><path d="M-173 11l-14 -16" fill="none" stroke="#f1c7a6" stroke-width="4" stroke-linecap="round"/><path d="M-189.8 32.6l-14 -16" fill="none" stroke="#f1c7a6" stroke-width="4" stroke-linecap="round"/><path d="M-206.6 54.2l-14 -16" fill="none" stroke="#f1c7a6" stroke-width="4" stroke-linecap="round"/><path d="M-223.4 75.8l-14 -16" fill="none" stroke="#f1c7a6" stroke-width="4" stroke-linecap="round"/><path d="M-240.2 97.4l-14 -16" fill="none" stroke="#f1c7a6" stroke-width="4" stroke-linecap="round"/><path d="M-14 30L-110 -30L-200 220" fill="none" stroke="#f1c7a6" stroke-width="12" stroke-linecap="round" stroke-linejoin="round"/><circle cx="-110" cy="-30" r="9" fill="#f1c7a6" /><path d="M-150.5 82.5l-14 -16" fill="none" stroke="#f1c7a6" stroke-width="4" stroke-linecap="round"/><path d="M-161.3 112.5l-14 -16" fill="none" stroke="#f1c7a6" stroke-width="4" stroke-linecap="round"/><path d="M-172.1 142.5l-14 -16" fill="none" stroke="#f1c7a6" stroke-width="4" stroke-linecap="round"/><path d="M-182.9 172.5l-14 -16" fill="none" stroke="#f1c7a6" stroke-width="4" stroke-linecap="round"/><path d="M-193.7 202.5l-14 -16" fill="none" stroke="#f1c7a6" stroke-width="4" stroke-linecap="round"/><path d="M14 -30L110 -150L230 -150" fill="none" stroke="#f1c7a6" stroke-width="12" stroke-linecap="round" stroke-linejoin="round"/><circle cx="110" cy="-150" r="9" fill="#f1c7a6" /><path d="M164 -150l14 -16" fill="none" stroke="#f1c7a6" stroke-width="4" stroke-linecap="round"/><path d="M178.4 -150l14 -16" fill="none" stroke="#f1c7a6" stroke-width="4" stroke-linecap="round"/><path d="M192.8 -150l14 -16" fill="none" stroke="#f1c7a6" stroke-width="4" stroke-linecap="round"/><path d="M207.2 -150l14 -16" fill="none" stroke="#f1c7a6" stroke-width="4" stroke-linecap="round"/><path d="M221.6 -150l14 -16" fill="none" stroke="#f1c7a6" stroke-width="4" stroke-linecap="round"/><path d="M14 -10L110 -110L260 -30" fill="none" stroke="#f1c7a6" stroke-width="12" stroke-linecap="round" stroke-linejoin="round"/><circle cx="110" cy="-110" r="9" fill="#f1c7a6" /><path d="M177.5 -74l14 -16" fill="none" stroke="#f1c7a6" stroke-width="4" stroke-linecap="round"/><path d="M195.5 -64.4l14 -16" fill="none" stroke="#f1c7a6" stroke-width="4" stroke-linecap="round"/><path d="M213.5 -54.8l14 -16" fill="none" stroke="#f1c7a6" stroke-width="4" stroke-linecap="round"/><path d="M231.5 -45.2l14 -16" fill="none" stroke="#f1c7a6" stroke-width="4" stroke-linecap="round"/><path d="M249.5 -35.6l14 -16" fill="none" stroke="#f1c7a6" stroke-width="4" stroke-linecap="round"/><path d="M14 10L110 -70L250 110" fill="none" stroke="#f1c7a6" stroke-width="12" stroke-linecap="round" stroke-linejoin="round"/><circle cx="110" cy="-70" r="9" fill="#f1c7a6" /><path d="M173 11l14 -16" fill="none" stroke="#f1c7a6" stroke-width="4" stroke-linecap="round"/><path d="M189.8 32.6l14 -16" fill="none" stroke="#f1c7a6" stroke-width="4" stroke-linecap="round"/><path d="M206.6 54.2l14 -16" fill="none" stroke="#f1c7a6" stroke-width="4" stroke-linecap="round"/><path d="M223.4 75.8l14 -16" fill="none" stroke="#f1c7a6" stroke-width="4" stroke-linecap="round"/><path d="M240.2 97.4l14 -16" fill="none" stroke="#f1c7a6" stroke-width="4" stroke-linecap="round"/><path d="M14 30L110 -30L200 220" fill="none" stroke="#f1c7a6" stroke-width="12" stroke-linecap="round" stroke-linejoin="round"/><circle cx="110" cy="-30" r="9" fill="#f1c7a6" /><path d="M150.5 82.5l14 -16" fill="none" stroke="#f1c7a6" stroke-width="4" stroke-linecap="round"/><path d="M161.3 112.5l14 -16" fill="none" stroke="#f1c7a6" stroke-width="4" stroke-linecap="round"/><path d="M172.1 142.5l14 -16" fill="none" stroke="#f1c7a6" stroke-width="4" stroke-linecap="round"/><path d="M182.9 172.5l14 -16" fill="none" stroke="#f1c7a6" stroke-width="4" stroke-linecap="round"/><path d="M193.7 202.5l14 -16" fill="none" stroke="#f1c7a6" stroke-width="4" stroke-linecap="round"/><ellipse cx="0" cy="0" rx="20" ry="70" fill="#f1c7a6"/><path d="M-10 -70L0 -120L10 -70Z" fill="#f1c7a6" /><circle cx="-8" cy="-54" r="6" fill="#e03131" /><circle cx="8" cy="-54" r="6" fill="#e03131" /></g><g transform="translate(1240 300) scale(0.55)"><path d="M-14 -30L-110 -150L-230 -150" fill="none" stroke="#d9b48f" stroke-width="12" stroke-linecap="round" stroke-linejoin="round"/><circle cx="-110" cy="-150" r="9" fill="#d9b48f" /><path d="M-14 -10L-110 -110L-260 -30" fill="none" stroke="#d9b48f" stroke-width="12" stroke-linecap="round" stroke-linejoin="round"/><circle cx="-110" cy="-110" r="9" fill="#d9b48f" /><path d="M-14 10L-110 -70L-250 110" fill="none" stroke="#d9b48f" stroke-width="12" stroke-linecap="round" stroke-linejoin="round"/><circle cx="-110" cy="-70" r="9" fill="#d9b48f" /><path d="M-14 30L-110 -30L-200 220" fill="none" stroke="#d9b48f" stroke-width="12" stroke-linecap="round" stroke-linejoin="round"/><circle cx="-110" cy="-30" r="9" fill="#d9b48f" /><path d="M14 -30L110 -150L230 -150" fill="none" stroke="#d9b48f" stroke-width="12" stroke-linecap="round" stroke-linejoin="round"/><circle cx="110" cy="-150" r="9" fill="#d9b48f" /><path d="M14 -10L110 -110L260 -30" fill="none" stroke="#d9b48f" stroke-width="12" stroke-linecap="round" stroke-linejoin="round"/><circle cx="110" cy="-110" r="9" fill="#d9b48f" /><path d="M14 10L110 -70L250 110" fill="none" stroke="#d9b48f" stroke-width="12" stroke-linecap="round" stroke-linejoin="round"/><circle cx="110" cy="-70" r="9" fill="#d9b48f" /><path d="M14 30L110 -30L200 220" fill="none" stroke="#d9b48f" stroke-width="12" stroke-linecap="round" stroke-linejoin="round"/><circle cx="110" cy="-30" r="9" fill="#d9b48f" /><ellipse cx="0" cy="0" rx="20" ry="70" fill="#d9b48f"/><path d="M-10 -70L0 -120L10 -70Z" fill="#d9b48f" /><circle cx="-8" cy="-54" r="6" fill="#e03131" /><circle cx="8" cy="-54" r="6" fill="#e03131" /></g></svg>
<rect width="600" height="96" fill="#ffffff"/>
<text x="30" y="66" font-family="'Arial Black','Helvetica Neue',Arial,sans-serif" font-weight="900" font-size="50" fill="#06504d" letter-spacing="-1">ARISE<tspan fill="#0f9f9a"> NEWS</tspan></text>
<text x="570" y="44" font-family="Arial,sans-serif" font-weight="700" font-size="16" fill="#06504d" text-anchor="end">ISSUE 2</text>
<text x="570" y="68" font-family="Arial,sans-serif" font-weight="700" font-size="16" fill="#0f9f9a" text-anchor="end">SCIENCE</text>
<rect y="636" width="600" height="264" fill="#06504d"/>
<rect x="30" y="654" width="120" height="8" fill="#0f9f9a"/>
<text x="30" y="700" font-family="'Arial Black','Helvetica Neue',Arial,sans-serif" font-weight="900" font-size="44" fill="#ffffff">Two New Sea</text>
<text x="30" y="750" font-family="'Arial Black','Helvetica Neue',Arial,sans-serif" font-weight="900" font-size="44" fill="#ffffff">Spiders Found</text>
<text x="30" y="800" font-family="'Arial Black','Helvetica Neue',Arial,sans-serif" font-weight="900" font-size="44" fill="#ffffff">off Canada's</text>
<text x="30" y="850" font-family="'Arial Black','Helvetica Neue',Arial,sans-serif" font-weight="900" font-size="44" fill="#ffffff">Coast</text>
<text x="570" y="658" font-family="Arial,sans-serif" font-weight="800" font-size="20" fill="#ffffff" text-anchor="end">5 PTS</text>
</svg>