<svg xmlns="http://www.w3.org/2000/svg" viewBox="0 0 400 600" width="400" height="600">
<defs><linearGradient id="g" x1="0" y1="0" x2="0" y2="1"><stop offset="0" stop-color="#1d3557"/><stop offset="1" stop-color="#457b9d"/></linearGradient></defs>
<rect width="400" height="600" fill="url(#g)"/>

<circle cx="320" cy="240" r="28" fill="#fff4c2"/><path d="M0 480 Q120 455 220 470 T400 462 V600 H0Z" fill="#0d1b2a"/><path d="M100 470 V360 h40 V320 l20 -30 l20 30 v40 h40 V320 l20 -30 l20 30 v40 h40 V470z" fill="#0d1b2a"/><path d="M130 470 v-40 q10 -14 20 0 v40z" fill="#f1faee" opacity=".7"/><path d="M190 470 v-40 q10 -14 20 0 v40z" fill="#f1faee" opacity=".7"/><path d="M250 470 v-40 q10 -14 20 0 v40z" fill="#f1faee" opacity=".7"/>

<rect x="22" y="22" width="356" height="556" fill="none" stroke="#ffd43b" stroke-opacity=".55" stroke-width="2"/>
<text x="200" y="78" font-family="Georgia,serif" font-size="38" font-weight="700" fill="#fff" text-anchor="middle">Anne of the</text><text x="200" y="122" font-family="Georgia,serif" font-size="38" font-weight="700" fill="#fff" text-anchor="middle">Island</text>
<text x="200" y="556" font-family="Georgia,serif" font-size="20" letter-spacing="2" fill="#fff" fill-opacity=".85" text-anchor="middle">L. M. MONTGOMERY</text>
</svg>
