<svg xmlns="http://www.w3.org/2000/svg" viewBox="0 0 400 600" width="400" height="600">
<defs><linearGradient id="g" x1="0" y1="0" x2="0" y2="1"><stop offset="0" stop-color="#2f3e46"/><stop offset="1" stop-color="#52796f"/></linearGradient></defs>
<rect width="400" height="600" fill="url(#g)"/>

<path d="M0 480 Q120 455 220 470 T400 462 V600 H0Z" fill="#1a2428"/><rect x="110" y="320" width="180" height="130" rx="6" fill="#fff8e1" transform="rotate(-6 200 385)"/><path d="M130 350 h120 M130 372 h140 M130 394 h110" stroke="#adb5bd" stroke-width="3" transform="rotate(-6 200 385)"/><path d="M300 250 q-40 40 -70 140 l8 4 q50 -90 62 -144z" fill="#cad2c5"/>

<rect x="22" y="22" width="356" height="556" fill="none" stroke="#ffd43b" stroke-opacity=".55" stroke-width="2"/>
<text x="200" y="78" font-family="Georgia,serif" font-size="38" font-weight="700" fill="#fff" text-anchor="middle">Emily of New</text><text x="200" y="122" font-family="Georgia,serif" font-size="38" font-weight="700" fill="#fff" text-anchor="middle">Moon</text>
<text x="200" y="556" font-family="Georgia,serif" font-size="20" letter-spacing="2" fill="#fff" fill-opacity=".85" text-anchor="middle">L. M. MONTGOMERY</text>
</svg>
