<svg xmlns="http://www.w3.org/2000/svg" viewBox="0 0 400 600" width="400" height="600">
<defs><linearGradient id="g" x1="0" y1="0" x2="0" y2="1"><stop offset="0" stop-color="#2d3a1f"/><stop offset="1" stop-color="#6a7f3a"/></linearGradient></defs>
<rect width="400" height="600" fill="url(#g)"/>

<circle cx="310" cy="240" r="30" fill="#fff4c2"/><path d="M0 480 Q200 460 400 480 V600 H0Z" fill="#151d0e"/><path d="M80 480 V300 M140 480 V330 M290 480 V290" stroke="#151d0e" stroke-width="16"/><path d="M50 310 q30 -30 60 0 M110 340 q30 -30 60 0 M260 300 q30 -30 60 0" stroke="#a3c45a" stroke-width="10" fill="none"/><path d="M190 420 l12 -8 l12 8 l-12 8z" fill="#ffd43b"/>

<rect x="22" y="22" width="356" height="556" fill="none" stroke="#ffd43b" stroke-opacity=".55" stroke-width="2"/>
<text x="200" y="78" font-family="Georgia,serif" font-size="38" font-weight="700" fill="#fff" text-anchor="middle">Freckles</text>
<text x="200" y="556" font-family="Georgia,serif" font-size="20" letter-spacing="2" fill="#fff" fill-opacity=".85" text-anchor="middle">GENE STRATTON-PORTER</text>
</svg>
